<svg xmlns="http://www.w3.org/2000/svg" width="120" height="42" viewBox="0 0 120 42">
  <g id="Group_205" data-name="Group 205" transform="translate(-36.264 -34.668)">
    <g id="Group_196" data-name="Group 196" transform="translate(46.648 42.839)">
      <g id="Group_195" data-name="Group 195">
        <path id="Path_1023" data-name="Path 1023" d="M56.181,48.621h2.244a.261.261,0,1,0,0-.522H56.181a.261.261,0,1,0,0,.522ZM57.3,67.973a1.15,1.15,0,1,0,1.168,1.151A1.161,1.161,0,0,0,57.3,67.973Zm-5.724-.984H63.031V50.321H51.579ZM88.3,61.516a2.3,2.3,0,0,0-1.476.53,2.486,2.486,0,0,0-.867,1.4,2.845,2.845,0,0,0-.1.663v1.623a2.568,2.568,0,0,0,.661,1.8,2.226,2.226,0,0,0,1.722.729,2.266,2.266,0,0,0,1.938-.943,4.107,4.107,0,0,0,.691-2.491,3.956,3.956,0,0,0-.65-2.344A2.28,2.28,0,0,0,88.3,61.516Zm40.161-.135a2.21,2.21,0,0,0-2.014,1.16,4.324,4.324,0,0,0-.594,2.337,4.257,4.257,0,0,0,.594,2.3,2.219,2.219,0,0,0,2,1.158,2.192,2.192,0,0,0,1.971-1.182,4.235,4.235,0,0,0,.616-2.315,4.316,4.316,0,0,0-.588-2.3A2.2,2.2,0,0,0,128.457,61.381Zm-29.273.135a2.3,2.3,0,0,0-1.477.53,2.5,2.5,0,0,0-.868,1.4,2.792,2.792,0,0,0-.1.663v1.623a2.574,2.574,0,0,0,.661,1.8,2.224,2.224,0,0,0,1.72.729,2.263,2.263,0,0,0,1.94-.943,4.1,4.1,0,0,0,.7-2.491,3.972,3.972,0,0,0-.652-2.344A2.286,2.286,0,0,0,99.184,61.516ZM76.433,58.028h-.039c-.138.575-.353,1.423-.655,2.549L74.6,64.108h3.689l-1.157-3.531Q76.942,60.031,76.433,58.028Zm68.722,3.248a2.12,2.12,0,0,0-1.752.887,3.186,3.186,0,0,0-.652,1.681h4.586a2.936,2.936,0,0,0-.426-1.664A1.945,1.945,0,0,0,145.155,61.276ZM86.143,51.653a.872.872,0,0,0,.031-.279v-.69c-.912-.011-1.781.174-1.781.937a.672.672,0,0,0,.734.723A1.058,1.058,0,0,0,86.143,51.653ZM74.129,48.5c-.136-.423-.252-.9-.356-1.3H73.75c-.1.4-.22.886-.335,1.3l-.544,1.712h1.812ZM147.188,48a2.2,2.2,0,0,1,2.2,2.444,2.985,2.985,0,0,1-.042.536H145.93c.031.907.744,1.3,1.572,1.3a4.146,4.146,0,0,0,1.414-.227l.188.867a4.665,4.665,0,0,1-1.782.319,2.4,2.4,0,0,1-2.63-2.536A2.5,2.5,0,0,1,147.188,48Zm-20.453.114.063.753h.032A1.877,1.877,0,0,1,128.464,48c.892,0,1.814.567,1.814,2.155v2.981h-1.289V50.3c0-.721-.273-1.268-.974-1.268a1.08,1.08,0,0,0-1.007.742,1.167,1.167,0,0,0-.063.4v2.96h-1.288V49.611c0-.578-.022-1.062-.042-1.5ZM113.2,48a2.2,2.2,0,0,1,2.2,2.444,3.075,3.075,0,0,1-.042.536h-3.416c.031.907.744,1.3,1.572,1.3a4.15,4.15,0,0,0,1.414-.227l.188.867a4.664,4.664,0,0,1-1.781.319,2.4,2.4,0,0,1-2.631-2.536A2.5,2.5,0,0,1,113.2,48Zm-5.283-2.186h1.288v7.322h-1.288ZM97.7,48.9a2.729,2.729,0,0,0-1.373.372l-.252-.825A3.716,3.716,0,0,1,97.916,48a1.9,1.9,0,0,1,2.107,2.124v1.805a6.709,6.709,0,0,0,.083,1.206H98.943l-.094-.557h-.031a1.879,1.879,0,0,1-1.51.671,1.5,1.5,0,0,1-1.6-1.5c0-1.258,1.142-1.908,3.028-1.9v-.083C98.733,49.446,98.6,48.9,97.7,48.9Zm-7.621-2.878a.687.687,0,1,1-.722.691A.684.684,0,0,1,90.075,46.022Zm.639,2.094v5.022H89.425V48.116ZM72.986,46.187h1.645l2.295,6.951H75.533l-.639-1.97H72.661l-.608,1.97H70.722ZM64.4,69.235a2.241,2.241,0,0,1-2.259,2.217H52.466a2.24,2.24,0,0,1-2.26-2.217V48.07a2.243,2.243,0,0,1,2.26-2.22h9.679A2.243,2.243,0,0,1,64.4,48.07Zm15.557.508-1.283-3.969H74.211l-1.224,3.969H70.706l4.42-13.522h2.735l4.446,13.522Zm.5-16.605H79.193l-1.9-5.022H78.69l.827,2.547c.147.443.252.846.346,1.258h.032c.094-.413.21-.806.346-1.258l.818-2.547H82.41Zm2.654-1.382c0-1.258,1.142-1.908,3.028-1.9v-.083c0-.33-.137-.877-1.038-.877a2.729,2.729,0,0,0-1.372.372l-.252-.825A3.714,3.714,0,0,1,85.325,48a1.9,1.9,0,0,1,2.106,2.124v1.805a6.623,6.623,0,0,0,.084,1.206H86.351l-.094-.557h-.031a1.877,1.877,0,0,1-1.509.671A1.5,1.5,0,0,1,83.115,51.756Zm8.62,16.928a4.067,4.067,0,0,1-3.054,1.28,3.065,3.065,0,0,1-2.829-1.386V73.7h-2.2V63.2q0-1.565-.084-3.2h1.937l.121,1.544h.038a3.965,3.965,0,0,1,6.275-.378A5.328,5.328,0,0,1,93.11,64.75,5.461,5.461,0,0,1,91.735,68.684Zm2.291-15.545H92.737V45.816h1.289Zm8.594,15.545a4.067,4.067,0,0,1-3.054,1.28,3.063,3.063,0,0,1-2.826-1.386V73.7h-2.2V63.2q0-1.565-.081-3.2h1.932l.127,1.544h.038a3.96,3.96,0,0,1,6.27-.378A5.307,5.307,0,0,1,104,64.75,5.461,5.461,0,0,1,102.62,68.684Zm1.512-15.432a1.764,1.764,0,0,1-1.614-.866H102.5l-.063.753h-1.1c.022-.341.042-.9.042-1.413V45.816h1.288v2.99h.021a1.856,1.856,0,0,1,1.635-.8,2.245,2.245,0,0,1,2.128,2.547A2.42,2.42,0,0,1,104.132,53.252ZM115.214,68.76a5.479,5.479,0,0,1-3.744,1.182,6.645,6.645,0,0,1-3.561-.841l.511-1.8a6.23,6.23,0,0,0,3.177.842,3.053,3.053,0,0,0,1.939-.551,1.793,1.793,0,0,0,.691-1.481,1.874,1.874,0,0,0-.569-1.379,5.388,5.388,0,0,0-1.9-1.043q-3.6-1.32-3.606-3.869a3.388,3.388,0,0,1,1.271-2.731,5.106,5.106,0,0,1,3.375-1.062,6.808,6.808,0,0,1,3.12.641l-.556,1.766a5.515,5.515,0,0,0-2.637-.623,2.765,2.765,0,0,0-1.822.56,1.614,1.614,0,0,0-.55,1.228,1.663,1.663,0,0,0,.631,1.327,7.241,7.241,0,0,0,2,1.039,6.714,6.714,0,0,1,2.613,1.647,3.413,3.413,0,0,1,.836,2.345A3.587,3.587,0,0,1,115.214,68.76Zm7.761-7.143h-2.43v4.739c0,1.2.431,1.8,1.289,1.8a4.107,4.107,0,0,0,.977-.094l.063,1.641a5.059,5.059,0,0,1-1.712.241,2.647,2.647,0,0,1-2.038-.782,3.764,3.764,0,0,1-.737-2.627V61.616h-1.446V59.993h1.446V58.208l2.158-.642v2.427h2.43Zm-1.242-8.365a2.448,2.448,0,0,1-2.558-2.589A2.5,2.5,0,0,1,121.818,48a2.429,2.429,0,0,1,2.537,2.578A2.509,2.509,0,0,1,121.734,53.252Zm10.274,15.232a4.711,4.711,0,0,1-3.628,1.481,4.47,4.47,0,0,1-3.481-1.423,5.143,5.143,0,0,1-1.291-3.592,5.246,5.246,0,0,1,1.334-3.71,4.646,4.646,0,0,1,3.6-1.442,4.551,4.551,0,0,1,3.511,1.424,5.087,5.087,0,0,1,1.262,3.569A5.3,5.3,0,0,1,132.009,68.483Zm2.275-20.367h.722v-.939l1.269-.351v1.29H137.5v.948h-1.225v2.217c0,.619.167.929.659.929a1.712,1.712,0,0,0,.5-.052l.021.959a2.856,2.856,0,0,1-.932.135,1.491,1.491,0,0,1-1.111-.413,1.957,1.957,0,0,1-.409-1.413V49.064h-.722ZM139.935,61.9a4.03,4.03,0,0,0-.693-.055,2.1,2.1,0,0,0-1.793.861,3.185,3.185,0,0,0-.551,1.924v5.115h-2.2V63.06q0-1.676-.059-3.067h1.916l.082,1.867h.06a3.285,3.285,0,0,1,1.1-1.542,2.672,2.672,0,0,1,1.592-.52,3.524,3.524,0,0,1,.547.037Zm.334-11.771v3.012h-1.289V45.816h1.289V48.8h.021a1.69,1.69,0,0,1,.64-.567,1.829,1.829,0,0,1,.891-.227c.87,0,1.782.567,1.782,2.176v2.96h-1.289V50.313c0-.722-.273-1.279-.985-1.279a1.073,1.073,0,0,0-1.006.712A1.108,1.108,0,0,0,140.269,50.127Zm9.087,15.268H142.75a2.8,2.8,0,0,0,.959,2.2,3.293,3.293,0,0,0,2.159.683,7.313,7.313,0,0,0,2.671-.465l.347,1.506a8.338,8.338,0,0,1-3.325.6,4.573,4.573,0,0,1-4.934-4.912,5.559,5.559,0,0,1,1.224-3.675,4.262,4.262,0,0,1,3.467-1.563,3.7,3.7,0,0,1,3.242,1.563,5.224,5.224,0,0,1,.876,3.073A5.371,5.371,0,0,1,149.356,65.394Zm-45.508-16.4a1.194,1.194,0,0,0-1.142.929,1.446,1.446,0,0,0-.042.33v.814a1.347,1.347,0,0,0,.032.3,1.173,1.173,0,0,0,1.142.887c.807,0,1.3-.63,1.3-1.65C105.138,49.715,104.708,48.992,103.849,48.992Zm9.278-.123a1.249,1.249,0,0,0-1.183,1.227h2.242A1.084,1.084,0,0,0,113.127,48.869Zm8.66.051c-.912,0-1.278.877-1.278,1.711,0,.97.492,1.7,1.268,1.7.733,0,1.247-.7,1.247-1.722C123.024,49.827,122.667,48.92,121.786,48.92Zm-24.8,2.7a.672.672,0,0,0,.733.723,1.057,1.057,0,0,0,1.017-.691.852.852,0,0,0,.031-.279v-.69C97.853,50.673,96.983,50.859,96.983,51.622Zm50.131-2.753A1.25,1.25,0,0,0,145.93,50.1h2.243A1.083,1.083,0,0,0,147.115,48.869Z" transform="translate(-50.206 -45.816)" fill="#e3e3e3"/>
      </g>
    </g>
    <g id="Group_197" data-name="Group 197" transform="translate(36.264 34.668)">
      <path id="Path_1024" data-name="Path 1024" d="M150.51,76.668H42.016a5.71,5.71,0,0,1-5.752-5.655V40.33a5.714,5.714,0,0,1,5.752-5.662H150.51a5.714,5.714,0,0,1,5.753,5.662V71.013A5.711,5.711,0,0,1,150.51,76.668ZM42.016,36.134a4.234,4.234,0,0,0-4.262,4.2V71.013A4.23,4.23,0,0,0,42.016,75.2H150.51a4.232,4.232,0,0,0,4.264-4.189V40.33a4.236,4.236,0,0,0-4.264-4.2Z" transform="translate(-36.264 -34.668)" fill="#e3e3e3"/>
    </g>
  </g>
</svg>
