<svg xmlns="http://www.w3.org/2000/svg" width="120" height="42" viewBox="0 0 120 42">
  <g id="Group_229" data-name="Group 229" transform="translate(-344 -3950)">
    <g id="Rectangle_3516" data-name="Rectangle 3516" transform="translate(344 3950)" fill="none" stroke="#e3e3e3" stroke-miterlimit="10" stroke-width="1.8">
      <rect width="120" height="42" rx="7.739" stroke="none"/>
      <rect x="0.9" y="0.9" width="118.2" height="40.2" rx="6.839" fill="none"/>
    </g>
    <g id="Group_227" data-name="Group 227" transform="translate(380.027 3961.832)">
      <path id="Path_1096" data-name="Path 1096" d="M83.625-134.55v1.847h2.07v.537h-2.07v1.886h2.3v.567h-3v-5.4h3v.567Z" transform="translate(-82.922 135.585)" fill="#e3e3e3"/>
      <path id="Path_1097" data-name="Path 1097" d="M90.768-129.278l-1.1-1.61-1,1.61h-.78l1.39-2.169-1.4-2.039h.8l1.074,1.564.981-1.564h.78l-1.383,2.116,1.437,2.092Z" transform="translate(-84.217 135.149)" fill="#e3e3e3"/>
      <path id="Path_1098" data-name="Path 1098" d="M95.912-130.273v.613h-.525a1.356,1.356,0,0,1-.97-.306,1.379,1.379,0,0,1-.321-1.027v-2.269h-.633v-.606H94.1v-1.05h.711v1.05h1.1v.606h-1.1v2.284a.783.783,0,0,0,.151.556.729.729,0,0,0,.521.15Z" transform="translate(-85.677 135.531)" fill="#e3e3e3"/>
      <path id="Path_1099" data-name="Path 1099" d="M102.006-131.252H98.615a1.468,1.468,0,0,0,.414,1.08,1.354,1.354,0,0,0,.954.361,1.383,1.383,0,0,0,.853-.257,1.06,1.06,0,0,0,.421-.686h.749a1.759,1.759,0,0,1-.343.782,1.783,1.783,0,0,1-.691.537,2.3,2.3,0,0,1-.958.191,2.2,2.2,0,0,1-1.081-.26,1.846,1.846,0,0,1-.737-.748,2.343,2.343,0,0,1-.267-1.146,2.372,2.372,0,0,1,.267-1.15,1.844,1.844,0,0,1,.737-.751,2.2,2.2,0,0,1,1.081-.261,2.149,2.149,0,0,1,1.078.261,1.8,1.8,0,0,1,.7.7,1.958,1.958,0,0,1,.243.966A2.06,2.06,0,0,1,102.006-131.252Zm-.834-1.119a1.129,1.129,0,0,0-.487-.468,1.5,1.5,0,0,0-.672-.153,1.4,1.4,0,0,0-.973.356,1.431,1.431,0,0,0-.425,1.046h2.712A1.424,1.424,0,0,0,101.172-132.371Z" transform="translate(-86.844 135.169)" fill="#e3e3e3"/>
      <path id="Path_1100" data-name="Path 1100" d="M108.437-133.109a1.883,1.883,0,0,1,.456,1.361v2.444h-.7v-2.384a1.34,1.34,0,0,0-.325-.966,1.166,1.166,0,0,0-.88-.336,1.207,1.207,0,0,0-.927.372,1.533,1.533,0,0,0-.347,1.084v2.23h-.7v-4.208h.7v1a1.433,1.433,0,0,1,.575-.789,1.677,1.677,0,0,1,.954-.276A1.592,1.592,0,0,1,108.437-133.109Z" transform="translate(-88.694 135.174)" fill="#e3e3e3"/>
      <path id="Path_1101" data-name="Path 1101" d="M114.423-133.187a1.568,1.568,0,0,1,.529,1h-.672a.963.963,0,0,0-.313-.617,1.02,1.02,0,0,0-.714-.241.887.887,0,0,0-.591.18.606.606,0,0,0-.212.487.5.5,0,0,0,.143.372.929.929,0,0,0,.355.215q.213.073.584.157a5.738,5.738,0,0,1,.761.218,1.194,1.194,0,0,1,.494.356,1,1,0,0,1,.2.659,1.032,1.032,0,0,1-.39.836,1.58,1.58,0,0,1-1.039.322,2,2,0,0,1-1.236-.36,1.434,1.434,0,0,1-.564-1h.68a.877.877,0,0,0,.336.621,1.219,1.219,0,0,0,.784.237.817.817,0,0,0,.567-.184.617.617,0,0,0,.2-.482.529.529,0,0,0-.146-.391.976.976,0,0,0-.363-.222,5.516,5.516,0,0,0-.595-.161,5.753,5.753,0,0,1-.753-.215,1.149,1.149,0,0,1-.479-.341.947.947,0,0,1-.2-.632,1.053,1.053,0,0,1,.394-.855,1.631,1.631,0,0,1,1.073-.326A1.721,1.721,0,0,1,114.423-133.187Z" transform="translate(-90.459 135.169)" fill="#e3e3e3"/>
      <path id="Path_1102" data-name="Path 1102" d="M117.645-135.636a.5.5,0,0,1,.348-.119.5.5,0,0,1,.347.119.4.4,0,0,1,.131.311.4.4,0,0,1-.131.31.494.494,0,0,1-.347.119.5.5,0,0,1-.348-.119.4.4,0,0,1-.131-.31A.4.4,0,0,1,117.645-135.636Zm.7,1.544v4.208h-.7v-4.208Z" transform="translate(-91.962 135.755)" fill="#e3e3e3"/>
      <path id="Path_1103" data-name="Path 1103" d="M123.373-133.3a1.873,1.873,0,0,1,.757.751,2.318,2.318,0,0,1,.275,1.15,2.289,2.289,0,0,1-.275,1.146,1.875,1.875,0,0,1-.757.748,2.26,2.26,0,0,1-1.092.26,2.265,2.265,0,0,1-1.093-.26,1.9,1.9,0,0,1-.761-.748,2.267,2.267,0,0,1-.278-1.146,2.3,2.3,0,0,1,.278-1.15,1.9,1.9,0,0,1,.761-.751,2.265,2.265,0,0,1,1.093-.261A2.26,2.26,0,0,1,123.373-133.3Zm-1.792.521a1.269,1.269,0,0,0-.517.517,1.728,1.728,0,0,0-.2.862,1.713,1.713,0,0,0,.2.855,1.274,1.274,0,0,0,.517.517,1.485,1.485,0,0,0,.7.169,1.481,1.481,0,0,0,.7-.169,1.271,1.271,0,0,0,.518-.517,1.713,1.713,0,0,0,.2-.855,1.728,1.728,0,0,0-.2-.862,1.266,1.266,0,0,0-.518-.517,1.473,1.473,0,0,0-.7-.169A1.476,1.476,0,0,0,121.581-132.777Z" transform="translate(-92.651 135.169)" fill="#e3e3e3"/>
      <path id="Path_1104" data-name="Path 1104" d="M130.857-133.109a1.882,1.882,0,0,1,.455,1.361v2.444h-.7v-2.384a1.34,1.34,0,0,0-.324-.966,1.168,1.168,0,0,0-.881-.336,1.205,1.205,0,0,0-.926.372,1.53,1.53,0,0,0-.348,1.084v2.23h-.7v-4.208h.7v1a1.436,1.436,0,0,1,.575-.789,1.679,1.679,0,0,1,.954-.276A1.593,1.593,0,0,1,130.857-133.109Z" transform="translate(-94.553 135.174)" fill="#e3e3e3"/>
      <path id="Path_1105" data-name="Path 1105" d="M138.214-134.878a.9.9,0,0,0-.22.69v.114h1v.613h-1v3.594h-.7v-3.594h-.61v-.613h.61v-.169q0-1.51,1.707-1.441v.613A1.154,1.154,0,0,0,138.214-134.878Z" transform="translate(-96.971 135.737)" fill="#e3e3e3"/>
      <path id="Path_1106" data-name="Path 1106" d="M144.068-133.3a1.876,1.876,0,0,1,.756.751,2.318,2.318,0,0,1,.275,1.15,2.289,2.289,0,0,1-.275,1.146,1.878,1.878,0,0,1-.756.748,2.265,2.265,0,0,1-1.093.26,2.265,2.265,0,0,1-1.093-.26,1.9,1.9,0,0,1-.761-.748,2.267,2.267,0,0,1-.278-1.146,2.3,2.3,0,0,1,.278-1.15,1.9,1.9,0,0,1,.761-.751,2.265,2.265,0,0,1,1.093-.261A2.265,2.265,0,0,1,144.068-133.3Zm-1.793.521a1.269,1.269,0,0,0-.517.517,1.729,1.729,0,0,0-.2.862,1.713,1.713,0,0,0,.2.855,1.274,1.274,0,0,0,.517.517,1.484,1.484,0,0,0,.7.169,1.482,1.482,0,0,0,.7-.169,1.271,1.271,0,0,0,.518-.517,1.713,1.713,0,0,0,.2-.855,1.728,1.728,0,0,0-.2-.862,1.266,1.266,0,0,0-.518-.517,1.473,1.473,0,0,0-.7-.169A1.475,1.475,0,0,0,142.275-132.777Z" transform="translate(-98.059 135.169)" fill="#e3e3e3"/>
      <path id="Path_1107" data-name="Path 1107" d="M149.434-133.338a1.819,1.819,0,0,1,.957-.242v.759h-.216a1.51,1.51,0,0,0-.973.3,1.208,1.208,0,0,0-.379,1v2.215h-.7v-4.208h.7v.851A1.553,1.553,0,0,1,149.434-133.338Z" transform="translate(-99.961 135.174)" fill="#e3e3e3"/>
      <path id="Path_1108" data-name="Path 1108" d="M88.747-122.511v1.644H85.214v1.873h2.729v1.571H85.214v3.457H83.132v-8.545Z" transform="translate(-82.977 132.218)" fill="#e3e3e3"/>
      <path id="Path_1109" data-name="Path 1109" d="M96.41-119.819a2.114,2.114,0,0,1,.829.954v-1.22h2.07v6.744h-2.07v-1.22a2.112,2.112,0,0,1-.829.955,2.479,2.479,0,0,1-1.339.35,2.771,2.771,0,0,1-1.5-.417,2.856,2.856,0,0,1-1.047-1.2,4.132,4.132,0,0,1-.384-1.837,4.126,4.126,0,0,1,.384-1.843,2.87,2.87,0,0,1,1.047-1.2,2.77,2.77,0,0,1,1.5-.416A2.473,2.473,0,0,1,96.41-119.819Zm-1.748,1.9a1.7,1.7,0,0,0-.408,1.209,1.7,1.7,0,0,0,.408,1.209,1.41,1.41,0,0,0,1.078.435,1.413,1.413,0,0,0,1.078-.447,1.676,1.676,0,0,0,.42-1.2,1.672,1.672,0,0,0-.42-1.2,1.424,1.424,0,0,0-1.078-.441A1.408,1.408,0,0,0,94.663-117.921Z" transform="translate(-85.33 131.593)" fill="#e3e3e3"/>
      <path id="Path_1110" data-name="Path 1110" d="M109.371-119.45a3.179,3.179,0,0,1,1.121,1.976h-2.2a1.16,1.16,0,0,0-.4-.677,1.2,1.2,0,0,0-.767-.241,1.118,1.118,0,0,0-.9.429,1.925,1.925,0,0,0-.353,1.251,1.926,1.926,0,0,0,.353,1.251,1.118,1.118,0,0,0,.9.429,1.193,1.193,0,0,0,.767-.242,1.157,1.157,0,0,0,.4-.677h2.2a3.178,3.178,0,0,1-1.121,1.977,3.391,3.391,0,0,1-2.2.719,3.679,3.679,0,0,1-1.773-.417,2.984,2.984,0,0,1-1.211-1.2,3.7,3.7,0,0,1-.439-1.837,3.745,3.745,0,0,1,.432-1.843,2.954,2.954,0,0,1,1.212-1.2,3.712,3.712,0,0,1,1.779-.416A3.391,3.391,0,0,1,109.371-119.45Z" transform="translate(-88.364 131.593)" fill="#e3e3e3"/>
      <path id="Path_1111" data-name="Path 1111" d="M121.046-116.338h-4.714a1.555,1.555,0,0,0,.39,1.094,1.261,1.261,0,0,0,.9.333,1.238,1.238,0,0,0,.767-.23,1.074,1.074,0,0,0,.4-.592H121a2.846,2.846,0,0,1-.585,1.275,3.106,3.106,0,0,1-1.145.882,3.65,3.65,0,0,1-1.547.32,3.678,3.678,0,0,1-1.772-.417,2.99,2.99,0,0,1-1.212-1.2,3.7,3.7,0,0,1-.438-1.837,3.745,3.745,0,0,1,.432-1.843,2.954,2.954,0,0,1,1.212-1.2,3.711,3.711,0,0,1,1.778-.416,3.718,3.718,0,0,1,1.779.41,2.917,2.917,0,0,1,1.187,1.154,3.41,3.41,0,0,1,.421,1.711A2.833,2.833,0,0,1,121.046-116.338Zm-2.406-1.868a1.329,1.329,0,0,0-.92-.332,1.372,1.372,0,0,0-.95.338,1.412,1.412,0,0,0-.426.992H119A1.239,1.239,0,0,0,118.64-118.205Z" transform="translate(-91.122 131.593)" fill="#e3e3e3"/>
      <path id="Path_1112" data-name="Path 1112" d="M131.155-120.523a2.875,2.875,0,0,1,1.047,1.2,4.135,4.135,0,0,1,.383,1.843,4.141,4.141,0,0,1-.383,1.837,2.861,2.861,0,0,1-1.047,1.2,2.772,2.772,0,0,1-1.5.417,2.48,2.48,0,0,1-1.34-.35,2.043,2.043,0,0,1-.816-.955v1.22h-2.083v-8.944h2.083v3.42a2.045,2.045,0,0,1,.816-.954,2.474,2.474,0,0,1,1.34-.35A2.772,2.772,0,0,1,131.155-120.523Zm-3.252,1.838a1.669,1.669,0,0,0-.42,1.2,1.673,1.673,0,0,0,.42,1.2,1.411,1.411,0,0,0,1.078.447,1.41,1.41,0,0,0,1.078-.435,1.7,1.7,0,0,0,.408-1.209,1.7,1.7,0,0,0-.408-1.209,1.408,1.408,0,0,0-1.078-.435A1.422,1.422,0,0,0,127.9-118.686Z" transform="translate(-94.026 132.364)" fill="#e3e3e3"/>
      <path id="Path_1113" data-name="Path 1113" d="M141.883-119.753a3.075,3.075,0,0,1,1.254,1.2,3.592,3.592,0,0,1,.456,1.838,3.59,3.59,0,0,1-.456,1.837,3.065,3.065,0,0,1-1.254,1.2,3.85,3.85,0,0,1-1.809.417,3.885,3.885,0,0,1-1.815-.417,3.06,3.06,0,0,1-1.261-1.2,3.59,3.59,0,0,1-.456-1.837A3.592,3.592,0,0,1,137-118.55a3.069,3.069,0,0,1,1.261-1.2,3.885,3.885,0,0,1,1.815-.416A3.85,3.85,0,0,1,141.883-119.753Zm-2.814,1.8a1.731,1.731,0,0,0-.408,1.239,1.706,1.706,0,0,0,.408,1.233,1.339,1.339,0,0,0,1,.423,1.321,1.321,0,0,0,1-.423,1.724,1.724,0,0,0,.4-1.233,1.749,1.749,0,0,0-.4-1.239,1.313,1.313,0,0,0-1-.429A1.331,1.331,0,0,0,139.07-117.952Z" transform="translate(-96.935 131.593)" fill="#e3e3e3"/>
      <path id="Path_1114" data-name="Path 1114" d="M152.849-119.753a3.08,3.08,0,0,1,1.254,1.2,3.592,3.592,0,0,1,.456,1.838,3.59,3.59,0,0,1-.456,1.837,3.07,3.07,0,0,1-1.254,1.2,3.852,3.852,0,0,1-1.809.417,3.883,3.883,0,0,1-1.815-.417,3.055,3.055,0,0,1-1.261-1.2,3.59,3.59,0,0,1-.456-1.837,3.593,3.593,0,0,1,.456-1.838,3.065,3.065,0,0,1,1.261-1.2,3.883,3.883,0,0,1,1.815-.416A3.852,3.852,0,0,1,152.849-119.753Zm-2.814,1.8a1.734,1.734,0,0,0-.408,1.239,1.709,1.709,0,0,0,.408,1.233,1.342,1.342,0,0,0,1.005.423,1.322,1.322,0,0,0,1-.423,1.724,1.724,0,0,0,.4-1.233,1.749,1.749,0,0,0-.4-1.239,1.314,1.314,0,0,0-1-.429A1.334,1.334,0,0,0,150.035-117.952Z" transform="translate(-99.801 131.593)" fill="#e3e3e3"/>
      <path id="Path_1115" data-name="Path 1115" d="M163.068-114.111l-2.034-2.864v2.864h-2.083v-8.944h2.083v4.907l2.034-2.708h2.448l-2.74,3.372,2.8,3.372Z" transform="translate(-102.791 132.364)" fill="#e3e3e3"/>
    </g>
    <g id="Group_228" data-name="Group 228" transform="translate(351.491 3960.315)">
      <path id="Path_1116" data-name="Path 1116" d="M65.958-127.074a10.793,10.793,0,0,0-10.834-10.75,10.792,10.792,0,0,0-10.834,10.75,10.778,10.778,0,0,0,9.141,10.62v-7.512H50.68v-3.108h2.751v-2.368a3.808,3.808,0,0,1,4.092-4.182,16.805,16.805,0,0,1,2.425.21v2.645H58.582a1.56,1.56,0,0,0-1.766,1.679v2.016h3l-.48,3.108H56.816v7.512A10.779,10.779,0,0,0,65.958-127.074Z" transform="translate(-44.29 137.824)" fill="#e3e3e3"/>
    </g>
  </g>
</svg>
