<svg xmlns="http://www.w3.org/2000/svg" width="10.189" height="9.867" viewBox="0 0 10.189 9.867">
  <g id="star" transform="translate(-6.022 -6.193)">
    <path id="Path_13437" data-name="Path 13437" d="M168.775,166.682h-2.033l-.629-1.945a1.244,1.244,0,0,0-2.371,0l-.629,1.945H161.08a1.255,1.255,0,0,0-.733,2.268l1.645,1.2-.628,1.945a1.255,1.255,0,0,0,.453,1.4,1.238,1.238,0,0,0,1.465,0l1.645-1.2,1.645,1.2a1.238,1.238,0,0,0,1.466,0,1.254,1.254,0,0,0,.453-1.4l-.628-1.945,1.645-1.2a1.255,1.255,0,0,0-.733-2.268Zm-2.353,1.7Zm.191.591" transform="translate(-153.811 -157.677)" fill="#fff"/>
  </g>
</svg>
