<svg id="Group_203" data-name="Group 203" xmlns="http://www.w3.org/2000/svg" width="125" height="42" viewBox="0 0 125 42">
  <g id="Group_199" data-name="Group 199">
    <path id="Path_1025" data-name="Path 1025" d="M326.635,75.668H214.02a6.209,6.209,0,0,1-6.193-6.211V39.879a6.209,6.209,0,0,1,6.193-6.211H326.635a6.209,6.209,0,0,1,6.192,6.211V69.457A6.209,6.209,0,0,1,326.635,75.668ZM214.02,35.135a4.742,4.742,0,0,0-4.73,4.744V69.457a4.742,4.742,0,0,0,4.73,4.744H326.635a4.742,4.742,0,0,0,4.729-4.744V39.879a4.742,4.742,0,0,0-4.729-4.744Z" transform="translate(-207.827 -33.668)" fill="#e3e3e3"/>
  </g>
  <g id="Group_200" data-name="Group 200" transform="translate(38.248 8.793)">
    <path id="Path_1026" data-name="Path 1026" d="M263.414,49.149h-.831a5.5,5.5,0,0,0-.235-.973h-1.2a5,5,0,0,0-.244.973h-.781q0-.1.606-1.666a13.1,13.1,0,0,0,.606-1.722h.981a14.366,14.366,0,0,0,.549,1.7A15.042,15.042,0,0,1,263.414,49.149Zm-1.2-1.471a14.645,14.645,0,0,1-.444-1.452h-.042q0,.1-.459,1.452Z" transform="translate(-260.123 -45.683)" fill="#e3e3e3"/>
    <path id="Path_1027" data-name="Path 1027" d="M268.173,49.149h-.641a6.408,6.408,0,0,0-.714-1.128,6.215,6.215,0,0,1-.851-1.47h-.041a9.21,9.21,0,0,1,.064,1.031q0,.643.037,1.567h-.638q.04-.808.04-1.772,0-.95-.04-1.616h.771a4.912,4.912,0,0,0,.641,1.1,6.534,6.534,0,0,1,.784,1.387h.039a9.814,9.814,0,0,1-.062-1.041q0-.705-.037-1.447h.649q-.036.645-.037,1.616T268.173,49.149Z" transform="translate(-261.537 -45.683)" fill="#e3e3e3"/>
    <path id="Path_1028" data-name="Path 1028" d="M273.29,47.332a1.925,1.925,0,0,1-.473,1.291,1.647,1.647,0,0,1-1.323.552q-.384,0-1.059-.031.034-.787.034-1.772,0-.947-.034-1.616h.454c.075,0,.185,0,.332-.008s.243-.008.288-.008a1.744,1.744,0,0,1,1.358.469A1.625,1.625,0,0,1,273.29,47.332Zm-.709.112a1.256,1.256,0,0,0-.29-.842,1.1,1.1,0,0,0-.887-.342,2.769,2.769,0,0,0-.306.023q.025.52.026,1.088,0,.622.026,1.233a1.7,1.7,0,0,0,.337.034.981.981,0,0,0,.826-.347A1.344,1.344,0,0,0,272.581,47.444Z" transform="translate(-262.893 -45.677)" fill="#e3e3e3"/>
    <path id="Path_1029" data-name="Path 1029" d="M278.075,49.144h-.768a5.13,5.13,0,0,0-.462-1.138.6.6,0,0,0-.519-.216l-.288,0q0,.669.023,1.351h-.721q.033-.787.034-1.772,0-.947-.034-1.616h.448c.052,0,.161,0,.326-.008s.318-.008.459-.008q1.19,0,1.191.817a.915.915,0,0,1-.68.9v.04a.808.808,0,0,1,.459.409A9.139,9.139,0,0,1,278.075,49.144Zm-.974-2.394q0-.518-.664-.518a2.28,2.28,0,0,0-.431.037q.029.4.029,1.051c.1,0,.176.005.241.005Q277.1,47.324,277.1,46.749Z" transform="translate(-264.211 -45.677)" fill="#e3e3e3"/>
    <path id="Path_1030" data-name="Path 1030" d="M282.951,47.364a1.875,1.875,0,0,1-.488,1.325,1.58,1.58,0,0,1-1.207.525,1.522,1.522,0,0,1-1.147-.483,1.7,1.7,0,0,1-.462-1.227,1.872,1.872,0,0,1,.488-1.325,1.578,1.578,0,0,1,1.206-.526,1.523,1.523,0,0,1,1.147.482A1.7,1.7,0,0,1,282.951,47.364Zm-.716.076a1.348,1.348,0,0,0-.278-.883.854.854,0,0,0-.685-.338.79.79,0,0,0-.643.341,1.359,1.359,0,0,0-.265.861,1.344,1.344,0,0,0,.279.881.853.853,0,0,0,.684.34.791.791,0,0,0,.644-.343A1.364,1.364,0,0,0,282.235,47.44Z" transform="translate(-265.368 -45.654)" fill="#e3e3e3"/>
    <path id="Path_1031" data-name="Path 1031" d="M285.9,49.149h-.734q.033-.808.034-1.772,0-.95-.034-1.616h.734q-.033.656-.034,1.616Q285.866,48.358,285.9,49.149Z" transform="translate(-266.85 -45.683)" fill="#e3e3e3"/>
    <path id="Path_1032" data-name="Path 1032" d="M290.263,47.332a1.924,1.924,0,0,1-.472,1.291,1.647,1.647,0,0,1-1.323.552q-.385,0-1.059-.031.034-.787.034-1.772,0-.947-.034-1.616h.454c.075,0,.185,0,.332-.008s.243-.008.288-.008a1.746,1.746,0,0,1,1.358.469A1.624,1.624,0,0,1,290.263,47.332Zm-.708.112a1.26,1.26,0,0,0-.29-.842,1.1,1.1,0,0,0-.888-.342,2.771,2.771,0,0,0-.306.023q.025.52.026,1.088,0,.622.026,1.233a1.69,1.69,0,0,0,.337.034.981.981,0,0,0,.827-.347A1.348,1.348,0,0,0,289.555,47.444Z" transform="translate(-267.452 -45.677)" fill="#e3e3e3"/>
    <path id="Path_1033" data-name="Path 1033" d="M296.924,49.149h-.831a5.458,5.458,0,0,0-.236-.973h-1.2a5.038,5.038,0,0,0-.243.973h-.781q0-.1.606-1.666a13.085,13.085,0,0,0,.606-1.722h.981a14.375,14.375,0,0,0,.548,1.7A15.034,15.034,0,0,1,296.924,49.149Zm-1.2-1.471a14.625,14.625,0,0,1-.444-1.452h-.042q0,.1-.459,1.452Z" transform="translate(-269.125 -45.683)" fill="#e3e3e3"/>
    <path id="Path_1034" data-name="Path 1034" d="M301.365,46.642a1.016,1.016,0,0,1-.461.919,2.049,2.049,0,0,1-1.13.3c-.081,0-.139,0-.174-.005q0,.49.029,1.291H298.9q.034-.753.034-1.772,0-.938-.034-1.616h.452c.064,0,.186,0,.368-.008s.339-.008.473-.008a1.485,1.485,0,0,1,.833.224A.759.759,0,0,1,301.365,46.642Zm-.67.144q0-.558-.737-.558a2.047,2.047,0,0,0-.389.04q.029.492.029,1.114c.043,0,.093.005.15.005Q300.7,47.387,300.7,46.786Z" transform="translate(-270.539 -45.677)" fill="#e3e3e3"/>
    <path id="Path_1035" data-name="Path 1035" d="M305.62,46.642a1.017,1.017,0,0,1-.46.919,2.048,2.048,0,0,1-1.13.3c-.082,0-.14,0-.174-.005q0,.49.029,1.291h-.729q.034-.753.034-1.772,0-.938-.034-1.616h.451c.064,0,.187,0,.369-.008s.339-.008.472-.008a1.486,1.486,0,0,1,.833.224A.76.76,0,0,1,305.62,46.642Zm-.669.144q0-.558-.736-.558a2.061,2.061,0,0,0-.39.04c.02.328.029.7.029,1.114.043,0,.094.005.151.005Q304.951,47.387,304.95,46.786Z" transform="translate(-271.682 -45.677)" fill="#e3e3e3"/>
    <path id="Path_1036" data-name="Path 1036" d="M312.268,47.364a1.874,1.874,0,0,1-.487,1.325,1.58,1.58,0,0,1-1.207.525,1.523,1.523,0,0,1-1.147-.483,1.7,1.7,0,0,1-.461-1.227,1.871,1.871,0,0,1,.488-1.325,1.578,1.578,0,0,1,1.206-.526,1.525,1.525,0,0,1,1.147.482A1.7,1.7,0,0,1,312.268,47.364Zm-.716.076a1.348,1.348,0,0,0-.277-.883.854.854,0,0,0-.685-.338.79.79,0,0,0-.643.341,1.36,1.36,0,0,0-.265.861,1.344,1.344,0,0,0,.279.881.853.853,0,0,0,.684.34.792.792,0,0,0,.644-.343A1.363,1.363,0,0,0,311.552,47.44Z" transform="translate(-273.243 -45.654)" fill="#e3e3e3"/>
    <path id="Path_1037" data-name="Path 1037" d="M317.268,49.149h-.641a6.352,6.352,0,0,0-.714-1.128,6.176,6.176,0,0,1-.851-1.47h-.042a9.224,9.224,0,0,1,.065,1.031q0,.643.036,1.567h-.638q.038-.808.039-1.772,0-.95-.039-1.616h.77a4.912,4.912,0,0,0,.641,1.1,6.532,6.532,0,0,1,.784,1.387h.039a9.807,9.807,0,0,1-.062-1.041q0-.705-.037-1.447h.649q-.036.645-.037,1.616T317.268,49.149Z" transform="translate(-274.725 -45.683)" fill="#e3e3e3"/>
  </g>
  <g id="Group_201" data-name="Group 201" transform="translate(38.044 16.338)">
    <path id="Path_1038" data-name="Path 1038" d="M271.982,62.717a5.436,5.436,0,0,1-1.492,4.019,5.806,5.806,0,0,1-4.409,1.783,6.289,6.289,0,1,1,0-12.579,6.17,6.17,0,0,1,2.465.5,4.944,4.944,0,0,1,1.878,1.345l-1.057,1.059a4.046,4.046,0,0,0-3.286-1.43,4.555,4.555,0,0,0-3.277,1.337,5.05,5.05,0,0,0,0,6.946,4.769,4.769,0,0,0,6.631-.009,3.783,3.783,0,0,0,1.006-2.438H266.08V61.809H271.9A5.206,5.206,0,0,1,271.982,62.717Z" transform="translate(-259.844 -55.94)" fill="#e3e3e3"/>
    <path id="Path_1039" data-name="Path 1039" d="M278.5,62.373a4.3,4.3,0,0,1,6.07,0,4.728,4.728,0,0,1,0,6.273,4.3,4.3,0,0,1-6.07,0,4.726,4.726,0,0,1,0-6.273Zm1.149,5.3a2.589,2.589,0,0,0,3.772,0,3.33,3.33,0,0,0,0-4.322,2.59,2.59,0,0,0-3.772,0,3.33,3.33,0,0,0,0,4.322Z" transform="translate(-264.536 -57.32)" fill="#e3e3e3"/>
    <path id="Path_1040" data-name="Path 1040" d="M290.767,62.373a4.3,4.3,0,0,1,6.07,0,4.728,4.728,0,0,1,0,6.273,4.3,4.3,0,0,1-6.07,0,4.726,4.726,0,0,1,0-6.273Zm1.148,5.3a2.59,2.59,0,0,0,3.773,0,3.333,3.333,0,0,0,0-4.322,2.591,2.591,0,0,0-3.773,0,3.33,3.33,0,0,0,0,4.322Z" transform="translate(-267.83 -57.32)" fill="#e3e3e3"/>
    <path id="Path_1041" data-name="Path 1041" d="M305.882,73.531A3.716,3.716,0,0,1,303.5,72.8a4.289,4.289,0,0,1-1.324-1.673l1.409-.588a2.311,2.311,0,0,0,.863,1.126,2.382,2.382,0,0,0,1.434.454,2.634,2.634,0,0,0,2-.765,2.883,2.883,0,0,0,.729-2.077v-.79h-.067a3.146,3.146,0,0,1-1.14,1.009,3.4,3.4,0,0,1-1.659.4A3.607,3.607,0,0,1,303,68.637a4.807,4.807,0,0,1,0-6.256,3.609,3.609,0,0,1,2.75-1.261,3.41,3.41,0,0,1,1.659.4,3.147,3.147,0,0,1,1.14,1.009h.067V61.388h1.476v7.82a4.114,4.114,0,0,1-1.224,3.221A4.3,4.3,0,0,1,305.882,73.531ZM306,68.486a2.456,2.456,0,0,0,1.853-.808,3.468,3.468,0,0,0,0-4.338,2.512,2.512,0,0,0-3.7.008,3.412,3.412,0,0,0,0,4.322A2.449,2.449,0,0,0,306,68.486Z" transform="translate(-271.125 -57.32)" fill="#e3e3e3"/>
    <path id="Path_1042" data-name="Path 1042" d="M316.656,68.347h-1.542V56.306h1.542Z" transform="translate(-274.69 -56.038)" fill="#e3e3e3"/>
    <path id="Path_1043" data-name="Path 1043" d="M322.652,69.9a3.955,3.955,0,0,1-3.026-1.245,4.416,4.416,0,0,1-1.166-3.144,4.546,4.546,0,0,1,1.132-3.1,3.669,3.669,0,0,1,2.892-1.295,3.784,3.784,0,0,1,2.926,1.194,4.536,4.536,0,0,1,1.1,3.2l-.017.285H320a2.8,2.8,0,0,0,.83,1.967,2.513,2.513,0,0,0,1.785.723,2.214,2.214,0,0,0,2.248-1.413l1.374.572a3.693,3.693,0,0,1-1.325,1.606A3.843,3.843,0,0,1,322.652,69.9Zm2.214-5.382a2.2,2.2,0,0,0-.646-1.345,2.3,2.3,0,0,0-1.769-.639,2.208,2.208,0,0,0-1.483.538,2.751,2.751,0,0,0-.864,1.447Z" transform="translate(-275.589 -57.32)" fill="#e3e3e3"/>
    <path id="Path_1044" data-name="Path 1044" d="M337.2,68.347h-1.543V56.306h4.091a3.79,3.79,0,0,1,2.64,1.017,3.507,3.507,0,0,1,0,5.13,3.787,3.787,0,0,1-2.64,1.017H337.2Zm0-6.357h2.582a1.991,1.991,0,0,0,1.559-.657,2.075,2.075,0,0,0,0-2.892,1.989,1.989,0,0,0-1.559-.657H337.2Z" transform="translate(-280.207 -56.038)" fill="#e3e3e3"/>
    <path id="Path_1045" data-name="Path 1045" d="M349.3,68.347h-1.542V56.306H349.3Z" transform="translate(-283.459 -56.038)" fill="#e3e3e3"/>
    <path id="Path_1046" data-name="Path 1046" d="M354.172,69.9a3.237,3.237,0,0,1-2.188-.757,2.509,2.509,0,0,1-.881-2,2.476,2.476,0,0,1,1.04-2.111,4.211,4.211,0,0,1,2.565-.765,4.4,4.4,0,0,1,2.23.5v-.236a1.84,1.84,0,0,0-.62-1.454,2.223,2.223,0,0,0-1.526-.547,2.36,2.36,0,0,0-1.216.319,1.643,1.643,0,0,0-.746.874l-1.409-.605a3.2,3.2,0,0,1,1.123-1.37,3.586,3.586,0,0,1,2.214-.631,3.793,3.793,0,0,1,2.615.925,3.309,3.309,0,0,1,1.039,2.607V69.63h-1.476V68.486h-.067A3.023,3.023,0,0,1,354.172,69.9Zm.252-1.413a2.509,2.509,0,0,0,1.736-.715,2.217,2.217,0,0,0,.779-1.689,3.034,3.034,0,0,0-1.962-.538,2.544,2.544,0,0,0-1.693.488,1.465,1.465,0,0,0-.57,1.144,1.1,1.1,0,0,0,.52.959A2.068,2.068,0,0,0,354.423,68.486Z" transform="translate(-284.358 -57.32)" fill="#e3e3e3"/>
    <path id="Path_1047" data-name="Path 1047" d="M364.558,73.359h-1.593l1.911-4.154-3.387-7.72h1.676l2.449,5.921h.034l2.381-5.921H369.7Z" transform="translate(-287.148 -57.418)" fill="#e3e3e3"/>
  </g>
  <g id="Group_202" data-name="Group 202" transform="translate(9.266 9.187)">
    <path id="Path_1048" data-name="Path 1048" d="M220.5,59.543q0-5.768,0-11.538a1.735,1.735,0,0,1,.424-1.26c.129-.139.223-.175.382-.013q3.87,3.961,7.752,7.91,2.512,2.559,5.03,5.113c.163.165.177.252,0,.424q-6.168,6.152-12.319,12.322a.423.423,0,0,1-.666.04,1.572,1.572,0,0,1-.607-1.333q0-3.417,0-6.834,0-2.415,0-4.831Z" transform="translate(-220.497 -46.307)" fill="#e3e3e3"/>
    <path id="Path_1049" data-name="Path 1049" d="M222.521,46.191a1.4,1.4,0,0,1,.748.208q7.877,4.427,15.757,8.849c.242.136.237.211.05.4q-1.762,1.739-3.5,3.5c-.126.126-.2.2-.371.027q-6.268-6.411-12.545-12.811C222.62,46.321,222.592,46.279,222.521,46.191Z" transform="translate(-221.04 -46.191)" fill="#e3e3e3"/>
    <path id="Path_1050" data-name="Path 1050" d="M224.128,77.492q5.717-5.8,11.429-11.6c.236-.241.346-.208.557.012.966,1.009,1.947,2,2.931,3,.173.174.188.245-.048.374q-7.339,4.031-14.672,8.074A2.024,2.024,0,0,0,224.128,77.492Z" transform="translate(-221.472 -51.395)" fill="#e3e3e3"/>
    <path id="Path_1051" data-name="Path 1051" d="M250.421,63.05a1.206,1.206,0,0,1-.529.966,6.7,6.7,0,0,1-.729.446c-1.48.82-2.964,1.633-4.439,2.459a.331.331,0,0,1-.483-.065q-1.576-1.634-3.177-3.242c-.155-.157-.159-.242,0-.4q1.863-1.841,3.707-3.7a.3.3,0,0,1,.43-.06c1.461.831,2.929,1.65,4.395,2.474A1.349,1.349,0,0,1,250.421,63.05Z" transform="translate(-225.99 -49.707)" fill="#e3e3e3"/>
  </g>
</svg>
