<svg xmlns="http://www.w3.org/2000/svg" width="30.925" height="30.925" viewBox="0 0 30.925 30.925">
  <g id="Group_11454" data-name="Group 11454" transform="matrix(0.259, -0.966, 0.966, 0.259, 4.014, 21.992)">
    <g id="Group_11453" data-name="Group 11453" transform="translate(-6.966 -6.868)">
      <path id="Path_13790" data-name="Path 13790" d="M11.5,0a.674.674,0,0,1,0,1.347,10.272,10.272,0,1,0,7.05,2.917V5.434a.673.673,0,1,1-1.346,0V2.739a.673.673,0,0,1,.673-.674H20.59a.671.671,0,1,1,0,1.343H19.6A11.45,11.45,0,1,1,11.5,0Z" transform="translate(0 15.385) rotate(-42)" fill="#fff"/>
    </g>
    <g id="Polygon_59" data-name="Polygon 59" transform="matrix(-0.966, 0.259, -0.259, -0.966, 16.282, 14.286)" fill="none">
      <path d="M4.624,1.593a1,1,0,0,1,1.752,0l3.809,6.925A1,1,0,0,1,9.309,10H1.691A1,1,0,0,1,.815,8.518Z" stroke="none"/>
      <path d="M 5.499999046325684 2.490041732788086 L 2.029513359069824 8.800002098083496 L 8.970471382141113 8.800002098083496 L 5.499999046325684 2.490041732788086 M 5.5 1.075037002563477 C 5.843127727508545 1.075037002563477 6.186254978179932 1.247732162475586 6.376220226287842 1.593122482299805 L 10.18494033813477 8.518082618713379 C 10.55148983001709 9.184532165527344 10.0693302154541 10.00000190734863 9.308730125427246 10.00000190734863 L 1.691269874572754 10.00000190734863 C 0.9306697845458984 10.00000190734863 0.4485101699829102 9.184532165527344 0.8150501251220703 8.518082618713379 L 4.623779773712158 1.593122482299805 C 4.813745021820068 1.247732162475586 5.156872272491455 1.075037002563477 5.5 1.075037002563477 Z" stroke="none" fill="#fff"/>
    </g>
  </g>
</svg>
