<svg xmlns="http://www.w3.org/2000/svg" width="112.499" height="30" viewBox="0 0 112.499 30">
  <g id="Group_12547" data-name="Group 12547" transform="translate(-20 -38)">
    <path id="Path_12112" data-name="Path 12112" d="M846.733,460.493a12.24,12.24,0,0,1-.47,3.571,7.6,7.6,0,0,1-.626,1.491,6.769,6.769,0,0,1-.91,1.268h0a10.022,10.022,0,0,1-1.479,1.362,9.739,9.739,0,0,1-1.706,1.016l-.025.01q-.488.214-.93.358a9.529,9.529,0,0,1-.951.253,9.856,9.856,0,0,1-4,.008,9.424,9.424,0,0,1-1.878-.607,9.019,9.019,0,0,1-1.739-1.008,9.738,9.738,0,0,1-1.508-1.389l-.015-.015a7.973,7.973,0,0,1-.893-1.283,8.137,8.137,0,0,1-.63-1.437,9.223,9.223,0,0,1-.366-1.67,14.635,14.635,0,0,1-.119-1.909V446.343l2.935,2.076v12.027a12.987,12.987,0,0,0,.079,1.539,6.564,6.564,0,0,0,.231,1.139,4.632,4.632,0,0,0,.391.907,5.437,5.437,0,0,0,.618.875h0a6.725,6.725,0,0,0,1,.9,6.364,6.364,0,0,0,2.456,1.079,7.287,7.287,0,0,0,2.811,0,6.564,6.564,0,0,0,1.3-.406,6.183,6.183,0,0,0,1.172-.666,6.765,6.765,0,0,0,1.031-.926h0a4.565,4.565,0,0,0,.563-.785,4.989,4.989,0,0,0,.4-.92,6.373,6.373,0,0,0,.25-1.159,12.542,12.542,0,0,0,.087-1.575V448.513l2.913-2.161v14.141Z" transform="translate(-765.939 -402.032)" fill="#e6e7e8"/>
    <path id="Path_12113" data-name="Path 12113" d="M1244.3,446.383l3.284,2.333v21.038H1244.3Z" transform="translate(-1138.439 -402.068)" fill="#e6e7e8" fill-rule="evenodd"/>
    <path id="Path_12114" data-name="Path 12114" d="M1033.377,468.471l-.006-.01-.074-.142-.085-.182,2.378-1.663.183.238a4.478,4.478,0,0,0,.979,1.021,7.313,7.313,0,0,0,1.5.887,8.853,8.853,0,0,0,1.87.6,10.459,10.459,0,0,0,2.093.2,6.908,6.908,0,0,0,4.286-1.224,3.7,3.7,0,0,0,1.082-1.234,3.1,3.1,0,0,0,.327-1.443,2.929,2.929,0,0,0-.217-1.175,2.427,2.427,0,0,0-.658-.873,4.635,4.635,0,0,0-1.342-.761,10.785,10.785,0,0,0-2.171-.562v0l-1.834-.266v0q-.721-.088-1.45-.212-.677-.116-1.272-.257a8.083,8.083,0,0,1-1.982-.695l-.01-.005a5.816,5.816,0,0,1-1.187-.879,5.358,5.358,0,0,1-1.476-2.543,6.019,6.019,0,0,1-.191-1.513,6.121,6.121,0,0,1,2.293-4.871,7.368,7.368,0,0,1,2.478-1.355,9.646,9.646,0,0,1,2.962-.432,12.061,12.061,0,0,1,1.334.076,10.813,10.813,0,0,1,1.285.222,9.26,9.26,0,0,1,1.22.374,8.421,8.421,0,0,1,1.128.535c.186.1.292.156.318.171q.091.052.352.214.22.136.411.279c.121.091.241.188.357.292a5.5,5.5,0,0,1,.922.894h0l.039.062.079.147.085.182-2.426,1.641-.064-.068a5.246,5.246,0,0,0-.934-.784,6.619,6.619,0,0,0-1.206-.625,7.5,7.5,0,0,0-1.392-.4,8.041,8.041,0,0,0-1.488-.135,6.877,6.877,0,0,0-2.084.291,4.616,4.616,0,0,0-1.543.821,3.4,3.4,0,0,0-.93,1.129,2.978,2.978,0,0,0-.283,1.318,2.511,2.511,0,0,0,.347,1.336,2.571,2.571,0,0,0,1.033.946,5.655,5.655,0,0,0,1.214.375q.944.214,2.442.413l.01.005,1.622.227h.015a14.752,14.752,0,0,1,2.943.73,7.448,7.448,0,0,1,2.239,1.268,5.271,5.271,0,0,1,1.449,1.961,6.579,6.579,0,0,1-2.117,7.693,8.409,8.409,0,0,1-2.82,1.371,13.388,13.388,0,0,1-5.011.338,11.664,11.664,0,0,1-1.527-.3,10.712,10.712,0,0,1-1.441-.492,9.965,9.965,0,0,1-1.3-.668h0a9.028,9.028,0,0,1-.853-.556,10.241,10.241,0,0,1-.811-.674,8.836,8.836,0,0,1-.646-.645A3.167,3.167,0,0,1,1033.377,468.471Z" transform="translate(-949.335 -404.517)" fill="#e6e7e8"/>
    <path id="Path_12115" data-name="Path 12115" d="M1336.246,452.054l.066.068.136.173.109.159-2.089,2.056-.055-.042q-.52-.4-.925-.689-.381-.269-.8-.526-.385-.238-.679-.384a5.364,5.364,0,0,0-.589-.249l-.025-.01a6.028,6.028,0,0,0-1.154-.312,8.29,8.29,0,0,0-1.369-.1q-.4,0-.75.029-.376.031-.7.086a6.441,6.441,0,0,0-.665.15q-.315.09-.685.236l-.035.016a7.371,7.371,0,0,0-1.25.582,7.733,7.733,0,0,0-1.138.817h-.005a7.875,7.875,0,0,0-1.227,1.329,9.372,9.372,0,0,0-.976,1.683,9.514,9.514,0,0,0-.629,1.855,8.493,8.493,0,0,0-.047,3.483,8.931,8.931,0,0,0,.489,1.618,9.148,9.148,0,0,0,.778,1.505,8.466,8.466,0,0,0,1.021,1.288,8.286,8.286,0,0,0,2.7,1.868,8.375,8.375,0,0,0,1.57.514,7.265,7.265,0,0,0,1.545.164,8.609,8.609,0,0,0,1.49-.126,8.708,8.708,0,0,0,1.416-.373v0q.351-.138.676-.3.307-.151.595-.328a6.27,6.27,0,0,0,.546-.375q.288-.222.55-.466l.055-.047.109-.091.086-.068,2.238,1.849-.044.091-.237.347-.017.018a5.787,5.787,0,0,1-1.349,1.17,10.944,10.944,0,0,1-1.853.933,11.355,11.355,0,0,1-4.259.867,10.593,10.593,0,0,1-4.235-.911,11.309,11.309,0,0,1-3.679-2.548l-.01-.016q-.376-.4-.728-.847t-.641-.881a11.112,11.112,0,0,1-.575-.975q-.283-.539-.5-1.061l-.005-.021a12.354,12.354,0,0,1-.643-2.194,11.749,11.749,0,0,1-.221-2.244,11.959,11.959,0,0,1,.875-4.438,12.5,12.5,0,0,1,1.035-2.057,11.721,11.721,0,0,1,1.38-1.786,10.609,10.609,0,0,1,3.661-2.547,11.23,11.23,0,0,1,2.11-.652,10.921,10.921,0,0,1,2.175-.219,10.645,10.645,0,0,1,3.967.766h0a9.556,9.556,0,0,1,1.785.888,9.915,9.915,0,0,1,1.581,1.253Z" transform="translate(-1204.137 -404.517)" fill="#e6e7e8"/>
    <path id="Path_12116" data-name="Path 12116" d="M423.751,388.315v27.293H420v-30Z" transform="translate(-400 -347.607)" fill="#2a86c7" fill-rule="evenodd"/>
    <path id="Path_12117" data-name="Path 12117" d="M532.121,446.348V470.03l-2.495-1.8V451.48l-11.6,8.377-14.1-10.182v-3.332l14.1,10.178Z" transform="translate(-475.189 -402.032)" fill="#e6e7e8" fill-rule="evenodd"/>
    <path id="Path_12118" data-name="Path 12118" d="M516.585,507.677l-2.134,1.536-8.019-5.789V515l-2.5,1.8V498.543l12.648,9.129Z" transform="translate(-475.189 -448.808)" fill="#e6e7e8" fill-rule="evenodd"/>
    <path id="Path_12119" data-name="Path 12119" d="M543.207,567.653l-6.287,4.535v-9.075Z" transform="translate(-504.741 -506.669)" fill="#2a86c7" fill-rule="evenodd"/>
  </g>
</svg>
