<svg xmlns="http://www.w3.org/2000/svg" width="24.911" height="19.74" viewBox="0 0 24.911 19.74">
  <g id="people-svgrepo-com_1_" data-name="people-svgrepo-com (1)" transform="translate(-0.003 -2.501)">
    <path id="Path_23374" data-name="Path 23374" d="M3.636,8.214a5.714,5.714,0,1,1,8.931,4.724,9.356,9.356,0,0,1,6.13,8.5.78.78,0,0,1-1.558.047,7.792,7.792,0,0,0-15.577,0A.779.779,0,1,1,0,21.438a9.356,9.356,0,0,1,6.13-8.5,5.708,5.708,0,0,1-2.5-4.724ZM9.351,4.058a4.156,4.156,0,1,0,4.156,4.156A4.156,4.156,0,0,0,9.351,4.058Z" transform="translate(0)" fill="#fff" fill-rule="evenodd"/>
    <path id="Path_23375" data-name="Path 23375" d="M17.341,8.058a3.222,3.222,0,0,0-.451.031.779.779,0,1,1-.22-1.542,4.706,4.706,0,0,1,3.512,8.412,6.951,6.951,0,0,1,4.11,6.345.779.779,0,0,1-1.558,0,5.4,5.4,0,0,0-3.839-5.166l-.555-.166V14.232l.426-.217a3.148,3.148,0,0,0-1.423-5.956Z" transform="translate(0.622 0.156)" fill="#fff"/>
  </g>
</svg>
