<svg xmlns="http://www.w3.org/2000/svg" xmlns:xlink="http://www.w3.org/1999/xlink" viewBox="12 6 64 64"><defs><filter id="a" x="0" y="0" width="88" height="88" filterUnits="userSpaceOnUse"><feOffset dy="6" input="SourceAlpha"/><feGaussianBlur stdDeviation="4" result="b"/><feFlood flood-opacity="0.341"/><feComposite operator="in" in2="b"/><feComposite in="SourceGraphic"/></filter><linearGradient id="c" x1="0.5" x2="0.5" y2="1" gradientUnits="objectBoundingBox"><stop offset="0" stop-color="#515364"/><stop offset="1" stop-color="#3f4150"/></linearGradient><filter id="d" x="8.818" y="5.818" width="70.364" height="70.364" filterUnits="userSpaceOnUse"><feOffset dy="3" input="SourceAlpha"/><feGaussianBlur stdDeviation="3" result="e"/><feFlood flood-opacity="0.6"/><feComposite operator="in" in2="e"/><feComposite in="SourceGraphic"/></filter></defs><g transform="translate(17.996 2)"><g transform="matrix(1, 0, 0, 1, -18, -2)" filter="url(#a)"><g transform="translate(12 6)" fill="#3f4150"><path d="M 32 62.5 C 27.88187026977539 62.5 23.88771057128906 61.69379043579102 20.12848091125488 60.1037712097168 C 16.49674987792969 58.56768035888672 13.23480033874512 56.36830902099609 10.43323993682861 53.5667610168457 C 7.63169002532959 50.76520156860352 5.432320117950439 47.50325012207031 3.896229982376099 43.87152099609375 C 2.306210041046143 40.11228942871094 1.5 36.11812973022461 1.5 32 C 1.5 27.88187026977539 2.306210041046143 23.88771057128906 3.896229982376099 20.12848091125488 C 5.432320117950439 16.49674987792969 7.63169002532959 13.23480033874512 10.43323993682861 10.43323993682861 C 13.23480033874512 7.63169002532959 16.49674987792969 5.432320117950439 20.12848091125488 3.896229982376099 C 23.88771057128906 2.306210041046143 27.88187026977539 1.5 32 1.5 C 36.11812973022461 1.5 40.11228942871094 2.306210041046143 43.87152099609375 3.896229982376099 C 47.50325012207031 5.432320117950439 50.76520156860352 7.63169002532959 53.5667610168457 10.43323993682861 C 56.36830902099609 13.23480033874512 58.56768035888672 16.49674987792969 60.1037712097168 20.12848091125488 C 61.69379043579102 23.88771057128906 62.5 27.88187026977539 62.5 32 C 62.5 36.11812973022461 61.69379043579102 40.11228942871094 60.1037712097168 43.87152099609375 C 58.56768035888672 47.50325012207031 56.36830902099609 50.76520156860352 53.5667610168457 53.5667610168457 C 50.76520156860352 56.36830902099609 47.50325012207031 58.56768035888672 43.87152099609375 60.1037712097168 C 40.11228942871094 61.69379043579102 36.11812973022461 62.5 32 62.5 Z" stroke="none"/><path d="M 32 3 C 28.08369827270508 3 24.2861442565918 3.766345977783203 20.71281051635742 5.277732849121094 C 17.25986480712891 6.738201141357422 14.15817642211914 8.829620361328125 11.49390029907227 11.49390029907227 C 8.829620361328125 14.15817642211914 6.738201141357422 17.25986480712891 5.277732849121094 20.71281051635742 C 3.766345977783203 24.2861442565918 3 28.08369827270508 3 32 C 3 35.91629791259766 3.766345977783203 39.7138557434082 5.277732849121094 43.28718948364258 C 6.738201141357422 46.74013519287109 8.829620361328125 49.84182357788086 11.49390029907227 52.50609970092773 C 14.15817642211914 55.17037963867188 17.25986480712891 57.26179885864258 20.71281051635742 58.72226715087891 C 24.2861442565918 60.2336540222168 28.08369827270508 61 32 61 C 35.91629791259766 61 39.7138557434082 60.2336540222168 43.28718948364258 58.72226715087891 C 46.74013519287109 57.26179885864258 49.84182357788086 55.17037963867188 52.50609970092773 52.50609970092773 C 55.17037963867188 49.84182357788086 57.26179885864258 46.74013519287109 58.72226715087891 43.28718948364258 C 60.2336540222168 39.7138557434082 61 35.91629791259766 61 32 C 61 28.08369827270508 60.2336540222168 24.2861442565918 58.72226715087891 20.71281051635742 C 57.26179885864258 17.25986480712891 55.17037963867188 14.15817642211914 52.50609970092773 11.49390029907227 C 49.84182357788086 8.829620361328125 46.74013519287109 6.738201141357422 43.28718948364258 5.277732849121094 C 39.7138557434082 3.766345977783203 35.91629791259766 3 32 3 M 32 0 C 49.67311096191406 0 64 14.32688903808594 64 32 C 64 49.67311096191406 49.67311096191406 64 32 64 C 14.32688903808594 64 0 49.67311096191406 0 32 C 0 14.32688903808594 14.32688903808594 0 32 0 Z" stroke="none" fill="#505263"/></g></g><g transform="translate(-0.178 9.818)"><path d="M26.182,0A26.182,26.182,0,1,1,7.668,7.668" transform="translate(0)" fill="none" stroke="#2a86c7" stroke-linecap="round" stroke-width="6"/><g transform="matrix(1, 0, 0, 1, -17.82, -11.82)" filter="url(#d)"><path d="M26.182,0A26.182,26.182,0,1,1,0,26.182,26.182,26.182,0,0,1,26.182,0Z" transform="translate(17.82 11.82)" fill="url(#c)"/></g><path d="M-888.771-983.525l-.048-20.627,2.424-1.666v24Zm-10.048-22.293,2.423,1.666-.047,20.627-2.376,1.707Z" transform="translate(919 1020)" fill="#2a86c7"/></g></g></svg>