<svg xmlns="http://www.w3.org/2000/svg" width="23.175" height="20" viewBox="0 0 23.175 20">
  <g id="music-files_2_" data-name="music-files (2)" transform="translate(-72.25 -265.957)">
    <path id="spotify_1_" data-name="spotify (1)" d="M173.716,1.28a.779.779,0,0,0-1-.46l-5.576,2.085a.782.782,0,0,0-.507.733v9.826a4.094,4.094,0,1,0,1.56,3.222V4.181l5.069-1.9a.783.783,0,0,0,.458-1.006Zm-9.621,17.948a2.535,2.535,0,1,1,2.535-2.542A2.541,2.541,0,0,1,164.094,19.228Z" transform="translate(-78.34 265.186)" fill="#fff"/>
    <line id="Line_7" data-name="Line 7" x1="5" transform="translate(73 284.114)" fill="none" stroke="#fff" stroke-linecap="round" stroke-width="1.5"/>
    <line id="Line_10" data-name="Line 10" x1="7" transform="translate(73 278.114)" fill="none" stroke="#fff" stroke-linecap="round" stroke-width="1.5"/>
    <line id="Line_9" data-name="Line 9" x1="12" transform="translate(73 272.306)" fill="none" stroke="#fff" stroke-linecap="round" stroke-width="1.5"/>
  </g>
</svg>
