<svg xmlns="http://www.w3.org/2000/svg" width="25.3" height="25.3" viewBox="0 0 25.3 25.3">
  <g id="interface-light-rating-star-1" transform="translate(0.65 0.65)">
    <rect id="Rectangle_10380" data-name="Rectangle 10380" width="24" height="24" rx="3" fill="none" stroke="#fff" stroke-linecap="round" stroke-linejoin="round" stroke-width="1.3" opacity="0"/>
    <path id="Path_23373" data-name="Path 23373" d="M18.987,8.7,20.875,13.9a1.059,1.059,0,0,0,.93.715l5.278.215a1.087,1.087,0,0,1,.6,1.931l-4.148,3.419a1.116,1.116,0,0,0-.358,1.144l1.43,5.321a1.044,1.044,0,0,1-1.559,1.2l-4.463-3.075a.987.987,0,0,0-1.144,0l-4.406,3.075A1.044,1.044,0,0,1,11.477,26.6l1.43-5.321a1.116,1.116,0,0,0-.358-1.144L8.4,16.715A1.087,1.087,0,0,1,9,14.784l5.278-.215a1.059,1.059,0,0,0,.93-.715l1.831-5.192a1.03,1.03,0,0,1,1.945.043Z" transform="translate(-6.043 -6.007)" fill="rgba(255,255,255,0)" stroke="#fff" stroke-linecap="round" stroke-linejoin="round" stroke-width="1.3"/>
  </g>
</svg>
