<svg id="Group_223" data-name="Group 223" xmlns="http://www.w3.org/2000/svg" xmlns:xlink="http://www.w3.org/1999/xlink" width="125" height="42" viewBox="0 0 125 42">
  <defs>
    <clipPath id="clip-path">
      <path id="Path_1081" data-name="Path 1081" d="M217.771-138.661V-116.5a1.906,1.906,0,0,0,1.9,1.9h24.085a1.906,1.906,0,0,0,1.9-1.9v-22.163Zm17.112,5.066h-6.338a1.267,1.267,0,0,1-1.268-1.267,1.267,1.267,0,0,1,1.268-1.267h6.338a1.267,1.267,0,0,1,1.268,1.267A1.267,1.267,0,0,1,234.883-133.595Z" transform="translate(-217.771 138.661)" fill="#e3e3e3"/>
    </clipPath>
    <clipPath id="clip-path-2">
      <path id="Path_1083" data-name="Path 1083" d="M217.771-138.661V-116.5a1.906,1.906,0,0,0,1.9,1.9h24.085a1.906,1.906,0,0,0,1.9-1.9v-22.163Zm17.112,5.066h-6.338a1.267,1.267,0,0,1-1.268-1.267,1.267,1.267,0,0,1,1.268-1.267h6.338a1.267,1.267,0,0,1,1.268,1.267A1.267,1.267,0,0,1,234.883-133.595Z" transform="translate(-217.771 138.661)" fill="none"/>
    </clipPath>
    <clipPath id="clip-path-4">
      <path id="Intersection_3" data-name="Intersection 3" d="M0,12.032A12.042,12.042,0,1,1,12.042,24.063,12.037,12.037,0,0,1,0,12.032Z" fill="none"/>
    </clipPath>
    <radialGradient id="radial-gradient" cx="-103.287" cy="961.744" r="1.499" gradientTransform="matrix(0.863, 0, 0, -0.999, -14.017, 1902.821)" gradientUnits="objectBoundingBox">
      <stop offset="0" stop-color="#fff" stop-opacity="0.102"/>
      <stop offset="1" stop-color="#fff" stop-opacity="0"/>
    </radialGradient>
  </defs>
  <g id="Rectangle_3515" data-name="Rectangle 3515" fill="none" stroke="#e3e3e3" stroke-miterlimit="10" stroke-width="1.8">
    <rect width="125" height="42" rx="7.739" stroke="none"/>
    <rect x="0.9" y="0.9" width="123.2" height="40.2" rx="6.839" fill="none"/>
  </g>
  <g id="Group_222" data-name="Group 222" transform="translate(7.387 9.701)">
    <g id="Group_208" data-name="Group 208" transform="translate(34.28 4.195)">
      <g id="Group_206" data-name="Group 206" transform="translate(0 8.676)">
        <path id="Path_1052" data-name="Path 1052" d="M267.98-114.1a3.371,3.371,0,0,1-2.481-1,3.387,3.387,0,0,1-1-2.5,3.39,3.39,0,0,1,1-2.5,3.373,3.373,0,0,1,2.481-1,3.1,3.1,0,0,1,2.462,1.094l-.6.58a2.262,2.262,0,0,0-1.863-.851,2.539,2.539,0,0,0-1.849.739,2.591,2.591,0,0,0-.754,1.936,2.589,2.589,0,0,0,.754,1.936,2.537,2.537,0,0,0,1.849.74,2.644,2.644,0,0,0,2.06-.973l.6.6a3.263,3.263,0,0,1-1.151.874A3.523,3.523,0,0,1,267.98-114.1Z" transform="translate(-264.498 121.1)" fill="#e3e3e3"/>
        <path id="Path_1053" data-name="Path 1053" d="M274.777-120.9v2.114l-.037.636h.037a1.518,1.518,0,0,1,.59-.556,1.709,1.709,0,0,1,.861-.229,1.621,1.621,0,0,1,1.3.523,2.085,2.085,0,0,1,.45,1.4v2.806h-.861v-2.675q0-1.272-1.133-1.272a1.062,1.062,0,0,0-.871.426,1.545,1.545,0,0,0-.337.987v2.535h-.861v-6.7Z" transform="translate(-267.007 121.046)" fill="#e3e3e3"/>
        <path id="Path_1054" data-name="Path 1054" d="M281.694-113.47h-.861v-4.583h.824v.748h.037a1.171,1.171,0,0,1,.539-.617,1.542,1.542,0,0,1,.791-.243,1.647,1.647,0,0,1,.646.112l-.328.8a1.292,1.292,0,0,0-.458-.066,1.125,1.125,0,0,0-.829.37,1.328,1.328,0,0,0-.36.968Z" transform="translate(-268.849 120.316)" fill="#e3e3e3"/>
        <path id="Path_1055" data-name="Path 1055" d="M285.39-117.519a2.24,2.24,0,0,1,1.695-.7,2.24,2.24,0,0,1,1.695.7,2.428,2.428,0,0,1,.665,1.744,2.428,2.428,0,0,1-.665,1.744,2.24,2.24,0,0,1-1.695.7,2.24,2.24,0,0,1-1.695-.7,2.428,2.428,0,0,1-.665-1.744A2.428,2.428,0,0,1,285.39-117.519Zm.641,2.947a1.428,1.428,0,0,0,1.053.454,1.429,1.429,0,0,0,1.053-.454,1.644,1.644,0,0,0,.445-1.2,1.644,1.644,0,0,0-.445-1.2,1.426,1.426,0,0,0-1.053-.454,1.425,1.425,0,0,0-1.053.454,1.644,1.644,0,0,0-.445,1.2A1.644,1.644,0,0,0,286.031-114.572Z" transform="translate(-269.886 120.33)" fill="#e3e3e3"/>
        <path id="Path_1056" data-name="Path 1056" d="M292.1-113.483v-4.583h.824v.636h.037a1.589,1.589,0,0,1,.6-.556,1.639,1.639,0,0,1,.81-.229,1.438,1.438,0,0,1,1.451.88,1.794,1.794,0,0,1,1.6-.88,1.47,1.47,0,0,1,1.226.519,2.2,2.2,0,0,1,.412,1.408v2.806h-.861v-2.675a1.5,1.5,0,0,0-.252-.982.966.966,0,0,0-.768-.29,1.019,1.019,0,0,0-.838.43,1.563,1.563,0,0,0-.332.982v2.535h-.861v-2.675a1.494,1.494,0,0,0-.253-.982.963.963,0,0,0-.767-.29,1.019,1.019,0,0,0-.839.43,1.563,1.563,0,0,0-.332.982v2.535Z" transform="translate(-271.851 120.33)" fill="#e3e3e3"/>
        <path id="Path_1057" data-name="Path 1057" d="M304.957-113.333a2.212,2.212,0,0,1-1.689-.693,2.45,2.45,0,0,1-.651-1.749,2.523,2.523,0,0,1,.632-1.721,2.051,2.051,0,0,1,1.615-.721,2.116,2.116,0,0,1,1.633.664,2.514,2.514,0,0,1,.613,1.777l-.009.159h-3.623a1.554,1.554,0,0,0,.464,1.094,1.405,1.405,0,0,0,1,.4,1.237,1.237,0,0,0,1.254-.786l.767.317a2.047,2.047,0,0,1-.739.893A2.148,2.148,0,0,1,304.957-113.333Zm1.236-2.993a1.218,1.218,0,0,0-.361-.748,1.287,1.287,0,0,0-.987-.355,1.236,1.236,0,0,0-.828.3,1.525,1.525,0,0,0-.482.8Z" transform="translate(-274.652 120.33)" fill="#e3e3e3"/>
        <path id="Path_1058" data-name="Path 1058" d="M319.934-120.9l-1.788,6.7h-.88l-1.442-4.415h-.037l-1.442,4.415h-.88l-1.863-6.7h.9l1.414,5.266h.037L315.4-120h.8l1.451,4.368h.037l1.339-5.266Z" transform="translate(-277.045 121.046)" fill="#e3e3e3"/>
        <path id="Path_1059" data-name="Path 1059" d="M325.159-113.333a2.212,2.212,0,0,1-1.69-.693,2.45,2.45,0,0,1-.651-1.749,2.523,2.523,0,0,1,.632-1.721,2.052,2.052,0,0,1,1.615-.721,2.118,2.118,0,0,1,1.634.664,2.517,2.517,0,0,1,.613,1.777l-.01.159H323.68a1.554,1.554,0,0,0,.464,1.094,1.405,1.405,0,0,0,1,.4,1.237,1.237,0,0,0,1.255-.786l.767.317a2.047,2.047,0,0,1-.739.893A2.148,2.148,0,0,1,325.159-113.333Zm1.236-2.993a1.218,1.218,0,0,0-.361-.748,1.287,1.287,0,0,0-.987-.355,1.236,1.236,0,0,0-.828.3,1.529,1.529,0,0,0-.482.8Z" transform="translate(-280.034 120.33)" fill="#e3e3e3"/>
        <path id="Path_1060" data-name="Path 1060" d="M332.442-114.049a1.946,1.946,0,0,1-.941-.225,1.59,1.59,0,0,1-.622-.561h-.037v.635h-.824v-6.7h.861v2.114l-.037.636h.037a1.592,1.592,0,0,1,.622-.561,1.954,1.954,0,0,1,.941-.224,2.02,2.02,0,0,1,1.535.7,2.473,2.473,0,0,1,.646,1.74,2.474,2.474,0,0,1-.646,1.74A2.02,2.02,0,0,1,332.442-114.049Zm-.141-.786a1.372,1.372,0,0,0,1.03-.454,1.672,1.672,0,0,0,.431-1.2,1.672,1.672,0,0,0-.431-1.2,1.369,1.369,0,0,0-1.03-.454,1.371,1.371,0,0,0-1.034.449,1.68,1.68,0,0,0-.426,1.206,1.68,1.68,0,0,0,.426,1.206A1.374,1.374,0,0,0,332.3-114.834Z" transform="translate(-281.951 121.046)" fill="#e3e3e3"/>
        <path id="Path_1061" data-name="Path 1061" d="M341.724-114.1a2.5,2.5,0,0,1-1.428-.477,2.207,2.207,0,0,1-.913-1.338l.786-.318a1.792,1.792,0,0,0,.576.931,1.453,1.453,0,0,0,.978.379,1.566,1.566,0,0,0,.96-.295.943.943,0,0,0,.4-.8,1.024,1.024,0,0,0-.4-.865,4.117,4.117,0,0,0-1.259-.566,3.374,3.374,0,0,1-1.348-.725,1.513,1.513,0,0,1-.458-1.137,1.662,1.662,0,0,1,.571-1.253,2.093,2.093,0,0,1,1.489-.533,2.156,2.156,0,0,1,1.386.425,1.977,1.977,0,0,1,.693.931l-.787.328a1.152,1.152,0,0,0-.417-.589,1.308,1.308,0,0,0-.856-.271,1.329,1.329,0,0,0-.847.276.843.843,0,0,0-.351.688.78.78,0,0,0,.324.632,3.083,3.083,0,0,0,.95.463,8.071,8.071,0,0,1,.828.309,3.867,3.867,0,0,1,.674.4,1.582,1.582,0,0,1,.515.617,1.994,1.994,0,0,1,.173.856,1.844,1.844,0,0,1-.2.87,1.632,1.632,0,0,1-.534.608,2.626,2.626,0,0,1-.716.342A2.693,2.693,0,0,1,341.724-114.1Z" transform="translate(-284.446 121.1)" fill="#e3e3e3"/>
        <path id="Path_1062" data-name="Path 1062" d="M348.406-113.864a1.481,1.481,0,0,1-1.1-.384,1.478,1.478,0,0,1-.379-1.085v-2.4h-.806v-.786h.806v-1.4h.861v1.4h1.123v.786h-1.123v2.338q0,.75.618.749a.913.913,0,0,0,.393-.076l.3.74A1.751,1.751,0,0,1,348.406-113.864Z" transform="translate(-286.241 120.787)" fill="#e3e3e3"/>
        <path id="Path_1063" data-name="Path 1063" d="M351.292-117.519a2.24,2.24,0,0,1,1.695-.7,2.24,2.24,0,0,1,1.695.7,2.428,2.428,0,0,1,.665,1.744,2.428,2.428,0,0,1-.665,1.744,2.24,2.24,0,0,1-1.695.7,2.24,2.24,0,0,1-1.695-.7,2.428,2.428,0,0,1-.665-1.744A2.428,2.428,0,0,1,351.292-117.519Zm.641,2.947a1.428,1.428,0,0,0,1.053.454,1.429,1.429,0,0,0,1.053-.454,1.643,1.643,0,0,0,.445-1.2,1.643,1.643,0,0,0-.445-1.2,1.426,1.426,0,0,0-1.053-.454,1.425,1.425,0,0,0-1.053.454,1.643,1.643,0,0,0-.445,1.2A1.643,1.643,0,0,0,351.933-114.572Z" transform="translate(-287.441 120.33)" fill="#e3e3e3"/>
        <path id="Path_1064" data-name="Path 1064" d="M358.864-113.47H358v-4.583h.824v.748h.037a1.174,1.174,0,0,1,.538-.617,1.544,1.544,0,0,1,.792-.243,1.643,1.643,0,0,1,.646.112l-.328.8a1.289,1.289,0,0,0-.459-.066,1.123,1.123,0,0,0-.828.37,1.325,1.325,0,0,0-.361.968Z" transform="translate(-289.406 120.316)" fill="#e3e3e3"/>
        <path id="Path_1065" data-name="Path 1065" d="M364.236-113.333a2.213,2.213,0,0,1-1.69-.693,2.453,2.453,0,0,1-.651-1.749,2.52,2.52,0,0,1,.632-1.721,2.05,2.05,0,0,1,1.615-.721,2.117,2.117,0,0,1,1.634.664,2.517,2.517,0,0,1,.613,1.777l-.01.159h-3.623a1.553,1.553,0,0,0,.463,1.094,1.405,1.405,0,0,0,1,.4,1.235,1.235,0,0,0,1.254-.786l.768.317a2.047,2.047,0,0,1-.74.893A2.15,2.15,0,0,1,364.236-113.333Zm1.235-2.993a1.216,1.216,0,0,0-.36-.748,1.289,1.289,0,0,0-.987-.355,1.238,1.238,0,0,0-.829.3,1.53,1.53,0,0,0-.482.8Z" transform="translate(-290.443 120.33)" fill="#e3e3e3"/>
      </g>
      <g id="Group_207" data-name="Group 207" transform="translate(0.497)">
        <path id="Path_1066" data-name="Path 1066" d="M265.176-127.792l1.913-5.068h.737l1.913,5.068h-.723l-.489-1.374h-2.133l-.5,1.374Zm1.439-1.982H268.3l-.829-2.287h-.028Z" transform="translate(-265.176 132.916)" fill="#e3e3e3"/>
        <path id="Path_1067" data-name="Path 1067" d="M272.47-127.209l-1.4-3.468h.709l1.021,2.689h.014l1.034-2.689h.695l-1.417,3.468Z" transform="translate(-266.745 132.333)" fill="#e3e3e3"/>
        <path id="Path_1068" data-name="Path 1068" d="M277.308-127.137a1.37,1.37,0,0,1-.924-.318,1.055,1.055,0,0,1-.372-.842,1.041,1.041,0,0,1,.439-.889,1.786,1.786,0,0,1,1.084-.322,1.871,1.871,0,0,1,.943.213v-.1a.774.774,0,0,0-.263-.612.943.943,0,0,0-.644-.23,1,1,0,0,0-.514.135.69.69,0,0,0-.315.368l-.6-.255a1.355,1.355,0,0,1,.475-.577,1.524,1.524,0,0,1,.935-.265,1.607,1.607,0,0,1,1.106.389,1.389,1.389,0,0,1,.439,1.1v2.1h-.624v-.482h-.029A1.277,1.277,0,0,1,277.308-127.137Zm.106-.594a1.065,1.065,0,0,0,.734-.3.935.935,0,0,0,.329-.712,1.287,1.287,0,0,0-.829-.226,1.078,1.078,0,0,0-.716.205.617.617,0,0,0-.241.482.463.463,0,0,0,.219.4A.873.873,0,0,0,277.415-127.732Z" transform="translate(-268.062 132.375)" fill="#e3e3e3"/>
        <path id="Path_1069" data-name="Path 1069" d="M281.907-132.151a.446.446,0,0,1-.326.134.446.446,0,0,1-.326-.134.446.446,0,0,1-.134-.326.445.445,0,0,1,.134-.325.446.446,0,0,1,.326-.134.446.446,0,0,1,.326.134.445.445,0,0,1,.134.325A.446.446,0,0,1,281.907-132.151Zm0,4.339h-.652v-3.468h.652Z" transform="translate(-269.423 132.937)" fill="#e3e3e3"/>
        <path id="Path_1070" data-name="Path 1070" d="M284-127.792h-.652v-5.068H284Z" transform="translate(-270.017 132.916)" fill="#e3e3e3"/>
        <path id="Path_1071" data-name="Path 1071" d="M286.3-127.137a1.37,1.37,0,0,1-.924-.318A1.055,1.055,0,0,1,285-128.3a1.043,1.043,0,0,1,.439-.889,1.787,1.787,0,0,1,1.084-.322,1.87,1.87,0,0,1,.942.213v-.1a.775.775,0,0,0-.262-.612.946.946,0,0,0-.645-.23.993.993,0,0,0-.514.135.688.688,0,0,0-.315.368l-.595-.255a1.349,1.349,0,0,1,.475-.577,1.522,1.522,0,0,1,.935-.265,1.6,1.6,0,0,1,1.1.389,1.39,1.39,0,0,1,.439,1.1v2.1h-.624v-.482h-.029A1.277,1.277,0,0,1,286.3-127.137Zm.106-.594a1.065,1.065,0,0,0,.734-.3.935.935,0,0,0,.329-.712,1.287,1.287,0,0,0-.829-.226,1.074,1.074,0,0,0-.715.205.617.617,0,0,0-.241.482.462.462,0,0,0,.22.4A.87.87,0,0,0,286.406-127.732Z" transform="translate(-270.458 132.375)" fill="#e3e3e3"/>
        <path id="Path_1072" data-name="Path 1072" d="M292.053-127.679a1.479,1.479,0,0,1-.712-.169,1.2,1.2,0,0,1-.471-.425h-.029v.482h-.624v-5.068h.652v1.6l-.029.481h.029a1.192,1.192,0,0,1,.471-.424,1.471,1.471,0,0,1,.712-.17,1.529,1.529,0,0,1,1.162.531,1.869,1.869,0,0,1,.489,1.317,1.868,1.868,0,0,1-.489,1.316A1.527,1.527,0,0,1,292.053-127.679Zm-.106-.594a1.037,1.037,0,0,0,.779-.343,1.267,1.267,0,0,0,.326-.91,1.267,1.267,0,0,0-.326-.91,1.035,1.035,0,0,0-.779-.344,1.038,1.038,0,0,0-.783.34,1.269,1.269,0,0,0-.323.913,1.27,1.27,0,0,0,.323.913A1.037,1.037,0,0,0,291.947-128.273Z" transform="translate(-271.847 132.916)" fill="#e3e3e3"/>
        <path id="Path_1073" data-name="Path 1073" d="M296.384-127.792h-.651v-5.068h.651Z" transform="translate(-273.316 132.916)" fill="#e3e3e3"/>
        <path id="Path_1074" data-name="Path 1074" d="M299.156-127.137a1.675,1.675,0,0,1-1.279-.523,1.856,1.856,0,0,1-.493-1.324,1.907,1.907,0,0,1,.478-1.3,1.552,1.552,0,0,1,1.222-.545,1.6,1.6,0,0,1,1.236.5,1.9,1.9,0,0,1,.464,1.345l-.007.12h-2.742a1.174,1.174,0,0,0,.351.828,1.061,1.061,0,0,0,.754.3.936.936,0,0,0,.95-.594l.58.24a1.554,1.554,0,0,1-.56.677A1.63,1.63,0,0,1,299.156-127.137Zm.935-2.265a.931.931,0,0,0-.273-.567.978.978,0,0,0-.748-.269.935.935,0,0,0-.627.226,1.156,1.156,0,0,0-.365.609Z" transform="translate(-273.756 132.375)" fill="#e3e3e3"/>
        <path id="Path_1075" data-name="Path 1075" d="M305.635-132.151a.444.444,0,0,1-.326.134.444.444,0,0,1-.326-.134.444.444,0,0,1-.135-.326.443.443,0,0,1,.135-.325.444.444,0,0,1,.326-.134.444.444,0,0,1,.326.134.446.446,0,0,1,.135.325A.446.446,0,0,1,305.635-132.151Zm0,4.339h-.651v-3.468h.651Z" transform="translate(-275.744 132.937)" fill="#e3e3e3"/>
        <path id="Path_1076" data-name="Path 1076" d="M307.7-130.718v.481h.028a1.157,1.157,0,0,1,.447-.421,1.293,1.293,0,0,1,.651-.174,1.226,1.226,0,0,1,.985.4,1.574,1.574,0,0,1,.34,1.061v2.124H309.5v-2.024q0-.963-.858-.963a.8.8,0,0,0-.659.323,1.167,1.167,0,0,0-.255.747v1.918h-.651v-3.468Z" transform="translate(-276.338 132.375)" fill="#e3e3e3"/>
        <path id="Path_1077" data-name="Path 1077" d="M315.858-127.539a1.12,1.12,0,0,1-.833-.29,1.117,1.117,0,0,1-.287-.821v-1.819h-.61v-.594h.61v-1.062h.652v1.062h.85v.594h-.85v1.769q0,.567.467.567a.7.7,0,0,0,.3-.056l.227.559A1.334,1.334,0,0,1,315.858-127.539Z" transform="translate(-278.216 132.72)" fill="#e3e3e3"/>
        <path id="Path_1078" data-name="Path 1078" d="M318.557-132.86v1.6l-.029.481h.029A1.159,1.159,0,0,1,319-131.2a1.3,1.3,0,0,1,.652-.174,1.225,1.225,0,0,1,.985.4,1.57,1.57,0,0,1,.34,1.061v2.124h-.652v-2.024q0-.963-.857-.963a.8.8,0,0,0-.659.323,1.167,1.167,0,0,0-.255.747v1.918h-.651v-5.068Z" transform="translate(-279.222 132.916)" fill="#e3e3e3"/>
        <path id="Path_1079" data-name="Path 1079" d="M324.641-127.137a1.675,1.675,0,0,1-1.279-.523,1.856,1.856,0,0,1-.493-1.324,1.911,1.911,0,0,1,.478-1.3,1.553,1.553,0,0,1,1.222-.545,1.6,1.6,0,0,1,1.236.5,1.9,1.9,0,0,1,.464,1.345l-.007.12h-2.742a1.177,1.177,0,0,0,.351.828,1.063,1.063,0,0,0,.754.3.936.936,0,0,0,.95-.594l.581.24a1.56,1.56,0,0,1-.56.677A1.634,1.634,0,0,1,324.641-127.137Zm.935-2.265a.931.931,0,0,0-.273-.567.978.978,0,0,0-.748-.269.938.938,0,0,0-.627.226,1.16,1.16,0,0,0-.365.609Z" transform="translate(-280.544 132.375)" fill="#e3e3e3"/>
      </g>
    </g>
    <g id="Group_221" data-name="Group 221">
      <g id="Group_210" data-name="Group 210">
        <g id="Group_209" data-name="Group 209" clip-path="url(#clip-path)">
          <path id="Path_1080" data-name="Path 1080" d="M217.771-138.661h27.887V-114.6H217.771Z" transform="translate(-217.771 138.661)" fill="#e3e3e3"/>
        </g>
      </g>
      <g id="Group_212" data-name="Group 212">
        <g id="Group_211" data-name="Group 211" clip-path="url(#clip-path-2)">
          <path id="Path_1082" data-name="Path 1082" d="M238.335-135.205H232a1.267,1.267,0,0,0-1.268,1.267A1.267,1.267,0,0,0,232-132.672h6.338a1.267,1.267,0,0,0,1.268-1.267A1.267,1.267,0,0,0,238.335-135.205Z" transform="translate(-221.223 137.738)" fill="#fff"/>
        </g>
      </g>
      <g id="Group_220" data-name="Group 220">
        <g id="Group_219" data-name="Group 219" clip-path="url(#clip-path-2)">
          <g id="Group_218" data-name="Group 218" transform="translate(-1.268 -3.166)">
            <g id="Group_215" data-name="Group 215" transform="translate(3.169 13.297)">
              <g id="Group_214" data-name="Group 214" transform="translate(0)" clip-path="url(#clip-path-4)">
                <path id="Path_1084" data-name="Path 1084" d="M222.969-124.838v14.766h5.389l4.741-8.2h12.042v-6.562Zm0,0v14.766h5.389l4.741-8.2h12.042v-6.562Z" transform="translate(-221.057 124.838)" fill="#c0bfbf"/>
                <path id="Path_1085" data-name="Path 1085" d="M220.362-99.953h11.463l5.32-5.316v-3.98h-9.481l-7.3-12.511Zm0,0h11.463l5.32-5.316v-3.98h-9.481l-7.3-12.511Z" transform="translate(-220.362 124.017)" fill="#868686"/>
                <path id="Path_1086" data-name="Path 1086" d="M236.567-115.885l4.741,8.2-5.319,9.3h12.62v-17.5Zm0,0,4.741,8.2-5.319,9.3h12.62v-17.5Z" transform="translate(-224.525 122.447)" fill="#aeaeae"/>
                <g id="Group_213" data-name="Group 213" transform="translate(6.568 6.562)">
                  <ellipse id="Ellipse_17695" data-name="Ellipse 17695" cx="5.474" cy="5.47" rx="5.474" ry="5.47" fill="#eee"/>
                  <ellipse id="Ellipse_17696" data-name="Ellipse 17696" cx="4.38" cy="4.376" rx="4.38" ry="4.376" transform="translate(1.095 1.094)" fill="#6c6c6c"/>
                </g>
              </g>
            </g>
            <g id="Group_217" data-name="Group 217" transform="translate(1.268 3.166)">
              <g id="Group_216" data-name="Group 216" clip-path="url(#clip-path-2)">
                <path id="Path_1087" data-name="Path 1087" d="M217.771-138.661h27.887v12.032H217.771Z" transform="translate(-217.771 138.661)" fill="rgba(25,24,24,0.05)"/>
              </g>
            </g>
            <path id="Path_1089" data-name="Path 1089" d="M217.771-122.462h27.887v.158H217.771Z" transform="translate(-216.503 137.501)" fill="rgba(25,24,24,0.02)"/>
            <path id="Path_1090" data-name="Path 1090" d="M217.771-122.246h27.887v.158H217.771Z" transform="translate(-216.503 137.443)" fill="rgba(255,255,255,0.05)"/>
            <path id="Path_1091" data-name="Path 1091" d="M234.883-133.595h-6.338a1.265,1.265,0,0,1-1.263-1.187.717.717,0,0,0,0,.079,1.267,1.267,0,0,0,1.268,1.267h6.338a1.267,1.267,0,0,0,1.268-1.267.575.575,0,0,0-.005-.079A1.265,1.265,0,0,1,234.883-133.595Zm-17.112-5.066v.158h27.887v-.158Z" transform="translate(-216.503 141.827)" fill="rgba(25,24,24,0.02)"/>
            <path id="Path_1092" data-name="Path 1092" d="M228.546-135.263h6.338a1.265,1.265,0,0,1,1.263,1.187c0-.027.005-.052.005-.079a1.267,1.267,0,0,0-1.268-1.267h-6.338a1.267,1.267,0,0,0-1.268,1.267.717.717,0,0,0,0,.079A1.265,1.265,0,0,1,228.546-135.263Zm15.211,21.372H219.672a1.906,1.906,0,0,1-1.9-1.9v.158a1.906,1.906,0,0,0,1.9,1.9h24.085a1.906,1.906,0,0,0,1.9-1.9v-.158A1.906,1.906,0,0,1,243.757-113.891Z" transform="translate(-216.503 140.961)" fill="rgba(26,23,24,0.1)"/>
            <path id="Path_1093" data-name="Path 1093" d="M217.771-138.661V-116.5a1.906,1.906,0,0,0,1.9,1.9h24.085a1.906,1.906,0,0,0,1.9-1.9v-22.163Zm17.112,5.066h-6.338a1.267,1.267,0,0,1-1.268-1.267,1.267,1.267,0,0,1,1.268-1.267h6.338a1.267,1.267,0,0,1,1.268,1.267A1.267,1.267,0,0,1,234.883-133.595Z" transform="translate(-216.503 141.827)" fill="url(#radial-gradient)"/>
            <path id="Path_1094" data-name="Path 1094" d="M216.043-142.98h30.423v30.4H216.043Z" transform="translate(-216.043 142.98)" fill="none"/>
          </g>
        </g>
      </g>
    </g>
  </g>
</svg>
